{
    "asset" : {
        "generator" : "Khronos glTF Blender I/O v0.9.36",
        "version" : "2.0"
    },
    "extensionsUsed" : [
        "KHR_materials_unlit"
    ],
    "extensionsRequired" : [
        "KHR_materials_unlit"
    ],
    "scene" : 0,
    "scenes" : [
        {
            "name" : "Scene",
            "nodes" : [
                0,
                1,
                2,
                3,
                4,
                5,
                6
            ]
        }
    ],
    "nodes" : [
        {
            "mesh" : 0,
            "name" : "rect10",
            "scale" : [
                29.621044158935547,
                29.621044158935547,
                29.621044158935547
            ],
            "translation" : [
                -0.026492774486541748,
                0,
                0.053023841232061386
            ]
        },
        {
            "mesh" : 1,
            "name" : "path13",
            "scale" : [
                29.621044158935547,
                29.621044158935547,
                29.621044158935547
            ],
            "translation" : [
                1.8029154539108276,
                0,
                -0.10831932723522186
            ]
        },
        {
            "mesh" : 2,
            "name" : "path41",
            "scale" : [
                29.621044158935547,
                29.621044158935547,
                29.621044158935547
            ],
            "translation" : [
                -1.879603385925293,
                0,
                -0.2337123602628708
            ]
        },
        {
            "mesh" : 3,
            "name" : "path39",
            "scale" : [
                29.621044158935547,
                29.621044158935547,
                29.621044158935547
            ],
            "translation" : [
                -1.879603385925293,
                0,
                -0.018601933494210243
            ]
        },
        {
            "mesh" : 4,
            "name" : "path88",
            "scale" : [
                29.621044158935547,
                29.621044158935547,
                29.621044158935547
            ],
            "translation" : [
                1.8029136657714844,
                0,
                -0.10832373797893524
            ]
        },
        {
            "mesh" : 5,
            "name" : "path88-3",
            "scale" : [
                29.621044158935547,
                29.621044158935547,
                29.621044158935547
            ],
            "translation" : [
                1.8029136657714844,
                0,
                -0.10832373797893524
            ]
        },
        {
            "mesh" : 6,
            "name" : "rect10.001",
            "scale" : [
                29.621044158935547,
                29.621044158935547,
                29.621044158935547
            ],
            "translation" : [
                -0.4461592137813568,
                0,
                0.8709201812744141
            ]
        }
    ],
    "materials" : [
        {
            "doubleSided" : true,
            "extensions" : {
                "KHR_materials_unlit" : {}
            },
            "name" : "Material.002",
            "pbrMetallicRoughness" : {
                "baseColorFactor" : [
                    0.07323502004146576,
                    0.07323502004146576,
                    0.07323502004146576,
                    1
                ]
            }
        },
        {
            "doubleSided" : true,
            "extensions" : {
                "KHR_materials_unlit" : {}
            },
            "name" : "Material.001",
            "pbrMetallicRoughness" : {
                "baseColorFactor" : [
                    1,
                    0.4936915636062622,
                    0.026414265856146812,
                    1
                ]
            }
        },
        {
            "doubleSided" : true,
            "extensions" : {
                "KHR_materials_unlit" : {}
            },
            "name" : "Material.003",
            "pbrMetallicRoughness" : {
                "baseColorFactor" : [
                    0.8000000715255737,
                    0.07422803342342377,
                    0.08011789619922638,
                    1
                ]
            }
        },
        {
            "doubleSided" : true,
            "extensions" : {
                "KHR_materials_unlit" : {}
            },
            "name" : "Material.004",
            "pbrMetallicRoughness" : {
                "baseColorFactor" : [
                    0.13475798070430756,
                    0.13628408312797546,
                    0.8000000715255737,
                    1
                ]
            }
        },
        {
            "doubleSided" : true,
            "extensions" : {
                "KHR_materials_unlit" : {}
            },
            "name" : "Material",
            "pbrMetallicRoughness" : {
                "baseColorFactor" : [
                    0.1630525290966034,
                    0.8000000715255737,
                    0.1016136109828949,
                    1
                ]
            }
        }
    ],
    "meshes" : [
        {
            "name" : "rect10.001",
            "primitives" : [
                {
                    "attributes" : {
                        "POSITION" : 0,
                        "NORMAL" : 1
                    },
                    "indices" : 2,
                    "material" : 0
                }
            ]
        },
        {
            "name" : "path13.001",
            "primitives" : [
                {
                    "attributes" : {
                        "POSITION" : 3,
                        "NORMAL" : 4
                    },
                    "indices" : 5,
                    "material" : 1
                }
            ]
        },
        {
            "name" : "path41.001",
            "primitives" : [
                {
                    "attributes" : {
                        "POSITION" : 6,
                        "NORMAL" : 7
                    },
                    "indices" : 8,
                    "material" : 2
                }
            ]
        },
        {
            "name" : "path39.001",
            "primitives" : [
                {
                    "attributes" : {
                        "POSITION" : 9,
                        "NORMAL" : 10
                    },
                    "indices" : 8,
                    "material" : 3
                }
            ]
        },
        {
            "name" : "path88.001",
            "primitives" : [
                {
                    "attributes" : {
                        "POSITION" : 11,
                        "NORMAL" : 12
                    },
                    "indices" : 13,
                    "material" : 1
                }
            ]
        },
        {
            "name" : "path88-3.001",
            "primitives" : [
                {
                    "attributes" : {
                        "POSITION" : 14,
                        "NORMAL" : 15
                    },
                    "indices" : 16,
                    "material" : 1
                }
            ]
        },
        {
            "name" : "rect10.000",
            "primitives" : [
                {
                    "attributes" : {
                        "POSITION" : 17,
                        "NORMAL" : 18
                    },
                    "indices" : 19,
                    "material" : 4
                }
            ]
        }
    ],
    "accessors" : [
        {
            "bufferView" : 0,
            "componentType" : 5126,
            "count" : 2688,
            "max" : [
                0.06608548760414124,
                0.00200000056065619,
                0.039182305335998535
            ],
            "min" : [
                -0.0649140328168869,
                -0.00200000056065619,
                -0.04392924904823303
            ],
            "type" : "VEC3"
        },
        {
            "bufferView" : 1,
            "componentType" : 5126,
            "count" : 2688,
            "type" : "VEC3"
        },
        {
            "bufferView" : 2,
            "componentType" : 5123,
            "count" : 4032,
            "type" : "SCALAR"
        },
        {
            "bufferView" : 3,
            "componentType" : 5126,
            "count" : 4608,
            "max" : [
                0.016634181141853333,
                0.00200000056065619,
                0.016631007194519043
            ],
            "min" : [
                -0.016634345054626465,
                -0.00200000056065619,
                -0.016631364822387695
            ],
            "type" : "VEC3"
        },
        {
            "bufferView" : 4,
            "componentType" : 5126,
            "count" : 4608,
            "type" : "VEC3"
        },
        {
            "bufferView" : 5,
            "componentType" : 5123,
            "count" : 6912,
            "type" : "SCALAR"
        },
        {
            "bufferView" : 6,
            "componentType" : 5126,
            "count" : 48,
            "max" : [
                0.014834307134151459,
                0.001999999862164259,
                0.0020000040531158447
            ],
            "min" : [
                -0.014834299683570862,
                -0.0020000003278255463,
                -0.0020000040531158447
            ],
            "type" : "VEC3"
        },
        {
            "bufferView" : 7,
            "componentType" : 5126,
            "count" : 48,
            "type" : "VEC3"
        },
        {
            "bufferView" : 8,
            "componentType" : 5123,
            "count" : 72,
            "type" : "SCALAR"
        },
        {
            "bufferView" : 9,
            "componentType" : 5126,
            "count" : 48,
            "max" : [
                0.006626315414905548,
                0.001999999862164259,
                0.0020000338554382324
            ],
            "min" : [
                -0.006626315414905548,
                -0.0020000003278255463,
                -0.001999974250793457
            ],
            "type" : "VEC3"
        },
        {
            "bufferView" : 10,
            "componentType" : 5126,
            "count" : 48,
            "type" : "VEC3"
        },
        {
            "bufferView" : 11,
            "componentType" : 5126,
            "count" : 48,
            "max" : [
                0.011903494596481323,
                0.00200000056065619,
                0.011901557445526123
            ],
            "min" : [
                -0.011903509497642517,
                -0.0020000003278255463,
                -0.01190158724784851
            ],
            "type" : "VEC3"
        },
        {
            "bufferView" : 12,
            "componentType" : 5126,
            "count" : 48,
            "type" : "VEC3"
        },
        {
            "bufferView" : 13,
            "componentType" : 5123,
            "count" : 72,
            "type" : "SCALAR"
        },
        {
            "bufferView" : 14,
            "componentType" : 5126,
            "count" : 48,
            "max" : [
                0.01190347969532013,
                0.0020000003278255463,
                0.011901557445526123
            ],
            "min" : [
                -0.011903509497642517,
                -0.0020000000949949026,
                -0.01190158724784851
            ],
            "type" : "VEC3"
        },
        {
            "bufferView" : 15,
            "componentType" : 5126,
            "count" : 48,
            "type" : "VEC3"
        },
        {
            "bufferView" : 16,
            "componentType" : 5123,
            "count" : 72,
            "type" : "SCALAR"
        },
        {
            "bufferView" : 17,
            "componentType" : 5126,
            "count" : 48,
            "max" : [
                0.024356748908758163,
                0.0020000000949949026,
                0.011436402797698975
            ],
            "min" : [
                -0.025090549141168594,
                -0.0020000000949949026,
                0.007319583557546139
            ],
            "type" : "VEC3"
        },
        {
            "bufferView" : 18,
            "componentType" : 5126,
            "count" : 48,
            "type" : "VEC3"
        },
        {
            "bufferView" : 19,
            "componentType" : 5123,
            "count" : 72,
            "type" : "SCALAR"
        }
    ],
    "bufferViews" : [
        {
            "buffer" : 0,
            "byteLength" : 32256,
            "byteOffset" : 0
        },
        {
            "buffer" : 0,
            "byteLength" : 32256,
            "byteOffset" : 32256
        },
        {
            "buffer" : 0,
            "byteLength" : 8064,
            "byteOffset" : 64512
        },
        {
            "buffer" : 0,
            "byteLength" : 55296,
            "byteOffset" : 72576
        },
        {
            "buffer" : 0,
            "byteLength" : 55296,
            "byteOffset" : 127872
        },
        {
            "buffer" : 0,
            "byteLength" : 13824,
            "byteOffset" : 183168
        },
        {
            "buffer" : 0,
            "byteLength" : 576,
            "byteOffset" : 196992
        },
        {
            "buffer" : 0,
            "byteLength" : 576,
            "byteOffset" : 197568
        },
        {
            "buffer" : 0,
            "byteLength" : 144,
            "byteOffset" : 198144
        },
        {
            "buffer" : 0,
            "byteLength" : 576,
            "byteOffset" : 198288
        },
        {
            "buffer" : 0,
            "byteLength" : 576,
            "byteOffset" : 198864
        },
        {
            "buffer" : 0,
            "byteLength" : 576,
            "byteOffset" : 199440
        },
        {
            "buffer" : 0,
            "byteLength" : 576,
            "byteOffset" : 200016
        },
        {
            "buffer" : 0,
            "byteLength" : 144,
            "byteOffset" : 200592
        },
        {
            "buffer" : 0,
            "byteLength" : 576,
            "byteOffset" : 200736
        },
        {
            "buffer" : 0,
            "byteLength" : 576,
            "byteOffset" : 201312
        },
        {
            "buffer" : 0,
            "byteLength" : 144,
            "byteOffset" : 201888
        },
        {
            "buffer" : 0,
            "byteLength" : 576,
            "byteOffset" : 202032
        },
        {
            "buffer" : 0,
            "byteLength" : 576,
            "byteOffset" : 202608
        },
        {
            "buffer" : 0,
            "byteLength" : 144,
            "byteOffset" : 203184
        }
    ],
    "buffers" : [
        {
            "byteLength" : 203328,
            "uri" : "data:application/octet-stream;base64,"
        }
    ]
}
